# xmcd CD database file
#
# Track frame offsets:
#	182
#	13970
#	26650
#	44447
#	57980
#	70217
#	80880
#	97315
#	119700
#	132302
#	146485
#	170087
#	208535
#	223312
#	237342
#	259880
#	274232
#	291352
#	311065
#	329945
#
# Disc length: 4650 seconds
#
# Revision: 2
# Processed by: cddbd v1.5PL3 Copyright (c) Steve Scherf et al.
# Submitted via: CDex 1.51
#
DISCID=5d122814
DTITLE=B.B. King - How Blue Can You Get
DYEAR=1994
DGENRE=
TTITLE0=You Upset Me Baby
TTITLE1=Everyday (I Have The Blues)
TTITLE2=Rock Me Baby
TTITLE3=Blues At Midnight
TTITLE4=How Blue Can You Get
TTITLE5=I Done Got Wise
TTITLE6=Lucille
TTITLE7=The Thrill Is Gone
TTITLE8=Please Accept My Love
TTITLE9=Ask Me No Questions
TTITLE10=Five Long Years
TTITLE11=To Know You Is To Love You
TTITLE12=Don't Make Me Pay For His Mistakes
TTITLE13=Mother Fuyer
TTITLE14=Midnight Believer
TTITLE15=Better Not Look Down
TTITLE16=There Must Be A Better World Somewhere
TTITLE17=Six Silver Strings
TTITLE18=Into The Night
TTITLE19=I'm Movin' On
EXTD=YEAR: 1994
EXTT0=
EXTT1=
EXTT2=
EXTT3=
EXTT4=
EXTT5=
EXTT6=
EXTT7=
EXTT8=
EXTT9=
EXTT10=
EXTT11=
EXTT12=
EXTT13=
EXTT14=
EXTT15=
EXTT16=
EXTT17=
EXTT18=
EXTT19=
PLAYORDER=
